<?xml version="1.0" standalone="no"?><!DOCTYPE svg PUBLIC "-//W3C//DTD SVG 1.1//EN" "http://www.w3.org/Graphics/SVG/1.1/DTD/svg11.dtd"><svg t="1689588079288" class="icon" viewBox="0 0 1024 1024" version="1.1" xmlns="http://www.w3.org/2000/svg" p-id="6221" xmlns:xlink="http://www.w3.org/1999/xlink" width="200" height="200"><path d="M614.4 601.6c-2.56 0-7.68 0-10.24-2.56-5.12-5.12-5.12-12.8 0-17.92l66.56-66.56-66.56-66.56c-5.12-5.12-5.12-12.8 0-17.92s12.8-5.12 17.92 0l76.8 76.8c5.12 5.12 5.12 12.8 0 17.92l-76.8 76.8H614.4z" fill="#231815" p-id="6222"></path><path d="M678.4 524.8h-204.8c-7.68 0-12.8-5.12-12.8-12.8s5.12-12.8 12.8-12.8h204.8c7.68 0 12.8 5.12 12.8 12.8s-5.12 12.8-12.8 12.8z" fill="#231815" p-id="6223"></path><path d="M537.6 704h-153.6c-35.84 0-64-28.16-64-64V384c0-35.84 28.16-64 64-64h153.6c7.68 0 12.8 5.12 12.8 12.8s-5.12 12.8-12.8 12.8h-153.6c-20.48 0-38.4 17.92-38.4 38.4v256c0 20.48 17.92 38.4 38.4 38.4h153.6c7.68 0 12.8 5.12 12.8 12.8s-5.12 12.8-12.8 12.8z" fill="#231815" p-id="6224"></path></svg>